<?xml version="1.0" standalone="no"?>
<!DOCTYPE svg PUBLIC "-//W3C//DTD SVG 20010904//EN"
 "http://www.w3.org/TR/2001/REC-SVG-20010904/DTD/svg10.dtd">
<svg version="1.0" xmlns="http://www.w3.org/2000/svg"
 width="700.000000pt" height="700.000000pt" viewBox="0 0 700.000000 700.000000"
 preserveAspectRatio="xMidYMid meet">
<metadata>
Created by potrace 1.14, written by Peter Selinger 2001-2017
</metadata>
<g transform="translate(0.000000,700.000000) scale(0.100000,-0.100000)"
fill="#000000" stroke="none">
<path d="M3278 6996 c-1 -2 -42 -6 -89 -10 -47 -4 -95 -8 -106 -10 -11 -3 -44
-7 -74 -11 -30 -4 -99 -16 -154 -27 -55 -11 -111 -22 -125 -24 -14 -3 -74 -19
-135 -36 -722 -202 -1324 -607 -1798 -1208 -74 -94 -184 -260 -264 -400 -147
-257 -253 -521 -333 -825 -42 -162 -57 -238 -74 -370 -4 -27 -9 -61 -11 -75
-26 -150 -26 -663 0 -821 2 -13 9 -60 15 -104 7 -44 14 -89 16 -100 2 -11 7
-33 10 -50 60 -340 230 -777 434 -1110 249 -409 617 -793 1006 -1052 11 -7 36
-24 56 -37 70 -46 223 -134 313 -179 307 -153 581 -245 942 -314 64 -13 215
-7 283 11 235 60 425 263 466 496 22 123 100 254 208 349 76 66 106 82 336
181 105 45 223 100 262 121 39 21 72 39 75 39 8 0 231 155 288 201 171 135
407 449 530 704 60 124 145 361 145 405 0 11 9 28 19 38 121 111 149 161 149
261 0 54 -9 97 -25 120 -1 2 -37 -13 -80 -34 -127 -62 -363 -160 -430 -180
-32 -9 -29 -26 13 -81 l36 -47 -17 -61 c-23 -82 -75 -217 -115 -296 -33 -66
-99 -181 -109 -190 -4 -3 -18 -24 -33 -47 -37 -57 -131 -164 -209 -240 -244
-235 -527 -383 -874 -454 -162 -34 -473 -34 -643 0 -630 126 -1120 561 -1322
1173 -34 103 -37 130 -14 149 8 7 24 29 34 49 l18 36 -46 18 c-141 54 -234 92
-292 119 -132 61 -192 87 -200 87 -15 0 -33 -101 -27 -150 3 -27 15 -68 26
-92 20 -45 87 -118 117 -128 11 -4 28 -45 50 -124 61 -213 155 -417 260 -567
195 -280 290 -384 467 -517 199 -148 324 -219 552 -311 299 -122 392 -193 431
-330 59 -201 -106 -397 -316 -377 -69 6 -214 41 -343 81 -406 128 -783 340
-1117 630 -75 64 -268 264 -330 340 -35 44 -70 86 -77 93 -7 7 -13 16 -13 20
0 6 -16 28 -60 79 -5 7 -10 16 -10 22 0 5 -4 11 -9 13 -34 12 -251 412 -325
598 -90 224 -166 508 -191 710 -4 30 -8 57 -10 60 -8 14 -19 233 -19 375 0
145 9 331 19 388 3 12 7 39 9 59 4 33 18 111 30 174 95 488 355 1019 682 1394
90 103 309 315 404 391 248 198 536 366 820 477 137 53 377 125 489 147 64 12
223 38 256 41 230 25 572 25 757 0 25 -4 53 -8 141 -22 22 -4 110 -22 187 -39
592 -131 1198 -496 1610 -970 126 -145 310 -397 310 -425 0 -5 5 -10 10 -10 6
0 10 -5 10 -10 0 -6 12 -29 26 -51 103 -164 239 -493 310 -749 23 -87 59 -263
70 -350 3 -25 7 -56 9 -70 25 -182 25 -585 1 -740 -2 -14 -7 -47 -11 -73 -4
-27 -8 -59 -11 -70 -2 -12 -7 -38 -10 -57 -3 -19 -7 -43 -10 -52 -3 -10 -7
-29 -10 -42 -2 -13 -15 -66 -28 -117 -191 -732 -647 -1366 -1290 -1794 -212
-141 -541 -304 -585 -290 -12 3 -21 10 -21 15 0 4 -22 22 -48 39 -292 187
-670 -28 -656 -374 4 -110 57 -220 143 -298 81 -74 180 -107 300 -103 207 8
370 158 401 369 5 38 5 38 125 90 456 199 873 501 1190 861 33 38 65 73 70 80
70 76 220 287 310 436 73 120 181 336 230 460 20 52 40 102 44 110 38 75 147
486 166 625 11 79 17 123 21 145 25 155 25 626 0 810 -2 14 -6 50 -10 80 -4
30 -16 102 -27 160 -153 797 -582 1510 -1213 2016 -193 155 -334 248 -556 366
-281 149 -704 295 -968 334 -20 3 -62 9 -93 15 -31 5 -81 12 -110 15 -30 3
-70 8 -89 11 -37 5 -536 13 -542 9z m1139 -6237 c21 -8 58 -27 82 -43 l45 -29
-40 -14 c-35 -12 -46 -12 -106 8 -184 59 -358 -63 -360 -254 -3 -232 271 -361
448 -210 32 27 72 85 79 114 4 16 15 29 28 32 12 3 32 8 44 12 20 6 21 5 14
-27 -44 -192 -239 -311 -431 -261 -161 41 -268 186 -257 351 2 37 6 77 10 88
20 76 103 175 174 210 87 42 189 50 270 23z"/>
<path d="M3369 6136 c-2 -2 -41 -6 -86 -10 -45 -3 -88 -8 -95 -10 -7 -3 -31
-7 -53 -10 -84 -12 -108 -21 -112 -41 -9 -48 -12 -64 -23 -137 -7 -43 -17 -81
-24 -86 -6 -4 -38 -16 -71 -27 -146 -46 -416 -181 -500 -250 l-24 -20 49 -87
48 -88 -86 -67 c-387 -300 -633 -747 -688 -1248 -1 -16 -4 -72 -6 -124 l-2
-95 -60 -45 c-141 -108 -386 -325 -386 -341 0 -14 380 -197 548 -264 155 -63
445 -159 514 -171 17 -3 34 -8 38 -10 13 -8 299 -71 365 -80 17 -2 59 -9 95
-14 61 -9 104 -15 190 -26 230 -29 628 -33 895 -10 39 3 82 8 98 9 15 2 55 7
90 11 34 4 71 9 82 11 10 2 37 6 60 10 90 13 306 57 395 80 52 14 103 27 113
29 53 11 301 94 437 147 161 62 580 263 580 277 0 5 -39 45 -87 89 -124 112
-155 139 -263 223 l-95 74 -2 85 c-5 232 -49 441 -137 654 -36 87 -95 202
-127 248 -11 14 -19 29 -19 32 0 4 -4 12 -10 19 -5 7 -31 41 -58 77 -110 150
-222 261 -404 400 -20 16 -20 16 12 75 18 33 40 74 51 91 l18 30 -77 51 c-146
95 -320 178 -468 222 l-70 22 -13 77 c-7 42 -17 97 -22 122 l-10 46 -67 12
c-96 18 -112 21 -157 27 -46 7 -370 16 -376 11z"/>
<path d="M4920 2870 c-125 -40 -225 -70 -246 -74 -11 -2 -46 -11 -79 -19 -33
-9 -71 -18 -85 -21 -407 -82 -656 -109 -995 -109 -143 -1 -390 9 -435 17 -14
2 -54 7 -90 10 -36 3 -76 8 -90 11 -14 2 -43 6 -66 9 -99 11 -273 46 -499 100
-24 6 -108 31 -208 62 -60 19 -114 34 -121 34 -29 0 78 -281 158 -415 51 -86
160 -227 227 -295 80 -81 183 -170 198 -170 6 0 11 -3 11 -7 0 -14 131 -92
240 -144 122 -58 265 -104 378 -123 17 -4 47 -9 65 -13 43 -9 359 -10 422 -1
151 21 371 88 473 144 23 13 44 24 47 24 3 0 18 7 33 16 366 221 604 514 721
888 17 55 30 100 28 101 -1 1 -40 -10 -87 -25z"/>
</g>
</svg>
